<svg xmlns="http://www.w3.org/2000/svg" viewBox="0 0 326.37 60.19"><defs><style>.cls-1{fill:#fff;}</style></defs><title>Block 1 Logo</title><g id="Layer_2" data-name="Layer 2"><g id="Layer_1-2" data-name="Layer 1"><path class="cls-1" d="M123.38,16.66C119.29,14,115.51,14,112.18,14H95.85V46.85H109c4.87,0,10.93,0,15.56-3.91a16.64,16.64,0,0,0,5.54-12.74C130.14,24.33,127.74,19.52,123.38,16.66ZM121,39.24c-3.13,2.77-6.7,3-10.39,3h-9.44V18.53h11A20.18,20.18,0,0,1,117,19c4.71,1.25,7.67,5.49,7.72,11.05C124.76,32.22,124.27,36.35,121,39.24Z"/><path class="cls-1" d="M162.15,43.24c-1.75,0-2.13-.54-2.13-3V31.34c0-1.7,0-3.31-1.16-4.86a7.3,7.3,0,0,0-4.44-2.55,30.65,30.65,0,0,0-6.41-.69c-7.85,0-10.16,1.93-11.31,3.62a9.89,9.89,0,0,0-1,2.3l-.11.42,5.08.48.1-.26c.91-2.21,4.59-2.68,7.52-2.68,7,0,7,2.31,7,5v.17h-5.94c-5.17,0-8.73.08-11,1.08a6.69,6.69,0,0,0-4.14,6.3c0,1.88.78,8,10.79,8,5.83,0,9.07-2.06,10.45-3.72.28,1.45,1.12,3.13,4.5,3.13,1,0,2-.08,2.89-.16l1.31-.1V43.05l-.42.05C163.38,43.14,162.47,43.24,162.15,43.24Zm-14.64-6.89h7.75a7.09,7.09,0,0,1-.76,3.08c-2,3.76-7.12,4.17-9.21,4.17-4.17,0-6-2-6-4C139.25,36.35,143.26,36.35,147.51,36.35Z"/><path class="cls-1" d="M173.56,16.24h-5v7.68h-3.87v3.7h3.78V40.34c0,2.9.2,4.14,1.38,5.31,1.39,1.35,3.47,1.52,5.13,1.52a33.49,33.49,0,0,0,4.36-.32l.33-.05V42.24l-.42,0-.42.07a18.54,18.54,0,0,1-2.67.25c-2.38,0-2.72-.74-2.72-3.49V27.62h6.32v-3.7h-6.18Z"/><path class="cls-1" d="M210.82,43.24c-1.75,0-2.13-.54-2.13-3V31.34c0-1.7,0-3.31-1.16-4.86a7.36,7.36,0,0,0-4.44-2.55,30.77,30.77,0,0,0-6.41-.69c-7.85,0-10.17,1.93-11.31,3.62a9.08,9.08,0,0,0-1.05,2.3l-.11.42,5.07.48.11-.26c.91-2.21,4.59-2.68,7.52-2.68,7,0,7,2.31,7,5v.17h-6c-5.17,0-8.72.08-11,1.08a6.69,6.69,0,0,0-4.14,6.3c0,1.88.78,8,10.78,8,5.84,0,9.08-2.06,10.45-3.72.29,1.45,1.13,3.13,4.51,3.13,1,0,1.94-.08,2.89-.16l1.3-.1V43.05l-.42.05C212,43.14,211.13,43.24,210.82,43.24Zm-14.64-6.89h7.74a6.91,6.91,0,0,1-.75,3.08c-2,3.76-7.13,4.17-9.22,4.17-4.17,0-6-2-6-4C187.92,36.35,191.93,36.35,196.18,36.35Z"/><path class="cls-1" d="M224.41,13.74c-4.67,0-6.33,2.39-6.91,4.41a13.94,13.94,0,0,0-.38,3.37v2.4h-3.63v3.66h3.59V46.85h5V27.62h6.09v-3.7H222.1V21.07c0-2.48,1.56-2.81,3.08-2.81a10.19,10.19,0,0,1,2.56.39l.49.16.06-4.7-.32,0A21.58,21.58,0,0,0,224.41,13.74Z"/><path class="cls-1" d="M253.71,36a6,6,0,0,1-.63,3.35c-.81,1.37-3.47,3.68-8.27,3.68-1.34,0-5.82-.24-7.15-3.35a10.83,10.83,0,0,1-.56-4.22V23.92h-5v12c0,2,0,4.36,1,6.3,2.46,5.13,9.91,5.39,11.38,5.39a15.45,15.45,0,0,0,7.66-1.92,16.15,16.15,0,0,0,1.74-1.23v2.38h5V23.92h-5.07Z"/><path class="cls-1" d="M280.54,23.28a17.5,17.5,0,0,0-6.69,1.21A10.73,10.73,0,0,0,271,26.18V23.92h-5.06V46.85H271V35.93a10,10,0,0,1,.52-3.77c1.61-4,6.3-4.45,8.25-4.45,5.21,0,6.83,2.48,7.29,3.56a7.47,7.47,0,0,1,.56,3.48v12.1h5V34.48a13.29,13.29,0,0,0-.76-5.43C290.32,25.49,286,23.28,280.54,23.28Z"/><path class="cls-1" d="M321.3,14V26.14a16.8,16.8,0,0,0-9.44-2.77,15.1,15.1,0,0,0-10,3.46,11.08,11.08,0,0,0-3.72,8.37,11.64,11.64,0,0,0,4.75,9.44,14.44,14.44,0,0,0,8.81,2.62,15,15,0,0,0,9.58-2.93v2.52h5.07V14Zm-9,29c-5.37,0-8.85-2.9-8.85-7.39,0-4.78,3.51-8,8.72-8,3.86,0,6.07,1.26,7.25,2.31a6.69,6.69,0,0,1,2.15,5.27C321.53,42.2,315.05,43,312.26,43Z"/><path class="cls-1" d="M17.47,29.83c0,4.66,3.41,8.68,8.26,9.92V19.91C20.88,21.16,17.47,25.17,17.47,29.83Z"/><path class="cls-1" d="M31.93,19.91V39.75c4.85-1.24,8.26-5.26,8.26-9.92S36.78,21.16,31.93,19.91Z"/><path class="cls-1" d="M26,0H0V60.19H26c20.67,0,34-11.79,34-30C60,11.55,46.93,0,26,0Zm6,46.08v5.29h-6.2V46.08c-8.31-1.4-14.46-8.24-14.46-16.25S17.42,15,25.73,13.58V8.66h6.2v4.92c8.3,1.4,14.46,8.24,14.46,16.25S40.23,44.68,31.93,46.08Z"/></g></g></svg>